<?xml version="1.0" encoding="utf-8"?>
<!-- Generator: Adobe Illustrator 18.0.0, SVG Export Plug-In . SVG Version: 6.00 Build 0)  -->
<!DOCTYPE svg PUBLIC "-//W3C//DTD SVG 1.1//EN" "http://www.w3.org/Graphics/SVG/1.1/DTD/svg11.dtd">
<svg version="1.1" id="Layer_1" xmlns="http://www.w3.org/2000/svg" xmlns:xlink="http://www.w3.org/1999/xlink" x="0px" y="0px"
	 viewBox="0 0 505 505" enable-background="new 0 0 505 505" xml:space="preserve">
<rect x="0" y="0.5" fill="#88CE02" width="504.7" height="504.4"/>
<g>
	<path fill="#484F38" d="M217.5,388.7v14.8h-16.2v39.8c0,3.7,0.6,6.2,1.9,7.5c1.2,1.2,3.7,1.9,7.5,1.9c1.2,0,2.4-0.1,3.6-0.2
		c1.1-0.1,2.2-0.3,3.3-0.5V469c-1.9,0.3-3.9,0.5-6.2,0.6c-2.3,0.1-4.5,0.2-6.7,0.2c-3.4,0-6.7-0.2-9.7-0.7c-3.1-0.5-5.7-1.4-8.1-2.7
		c-2.3-1.3-4.2-3.3-5.5-5.7c-1.3-2.5-2-5.7-2-9.8v-47.4h-13.4v-14.8h13.4v-24.1h22.1v24.1H217.5z"/>
	<path fill="#484F38" d="M248.6,358.1v41.8h0.5c2.8-4.7,6.4-8.1,10.7-10.2c4.3-2.1,8.6-3.2,12.7-3.2c5.9,0,10.7,0.8,14.5,2.4
		c3.8,1.6,6.8,3.8,8.9,6.7c2.2,2.8,3.7,6.3,4.6,10.4c0.9,4.1,1.3,8.6,1.3,13.6V469h-22.1v-45.4c0-6.6-1-11.6-3.1-14.8
		c-2.1-3.3-5.7-4.9-11-4.9c-6,0-10.4,1.8-13,5.4c-2.7,3.6-4,9.5-4,17.6V469h-22.1V358.1H248.6z"/>
	<path fill="#484F38" d="M334.5,449.7c3.3,3.2,8.1,4.8,14.3,4.8c4.5,0,8.3-1.1,11.5-3.3c3.2-2.2,5.2-4.6,5.9-7.1h19.4
		c-3.1,9.6-7.9,16.5-14.3,20.7c-6.4,4.1-14.2,6.2-23.3,6.2c-6.3,0-12-1-17.1-3c-5.1-2-9.4-4.9-12.9-8.6c-3.5-3.7-6.2-8.2-8.2-13.4
		c-1.9-5.2-2.9-10.9-2.9-17.1c0-6,1-11.6,3-16.8c2-5.2,4.8-9.7,8.4-13.4c3.6-3.8,7.9-6.8,13-8.9c5-2.2,10.6-3.3,16.7-3.3
		c6.8,0,12.8,1.3,17.9,4c5.1,2.6,9.2,6.2,12.5,10.6c3.3,4.5,5.6,9.5,7.1,15.2c1.4,5.7,2,11.6,1.6,17.9H329
		C329.3,441.4,331.2,446.5,334.5,449.7z M359.4,407.5c-2.6-2.9-6.7-4.4-12-4.4c-3.5,0-6.4,0.6-8.8,1.8c-2.3,1.2-4.2,2.7-5.6,4.4
		c-1.4,1.8-2.4,3.6-3,5.6c-0.6,2-0.9,3.7-1,5.3h35.9C363.9,414.6,362,410.4,359.4,407.5z"/>
	<path fill="#484F38" d="M413.2,388.7v11.2h0.5c2.8-4.7,6.4-8.1,10.9-10.2c4.5-2.1,9-3.2,13.7-3.2c5.9,0,10.7,0.8,14.5,2.4
		c3.8,1.6,6.8,3.8,8.9,6.7c2.2,2.8,3.7,6.3,4.6,10.4c0.9,4.1,1.3,8.6,1.3,13.6V469h-22.1v-45.4c0-6.6-1-11.6-3.1-14.8
		c-2.1-3.3-5.7-4.9-11-4.9c-6,0-10.4,1.8-13,5.4c-2.7,3.6-4,9.5-4,17.6V469h-22.1v-80.3H413.2z"/>
</g>
</svg>
